<?xml version="1.0" encoding="UTF-8" standalone="no"?>
<!DOCTYPE svg PUBLIC "-//W3C//DTD SVG 1.1//EN" "http://www.w3.org/Graphics/SVG/1.1/DTD/svg11.dtd">
<svg width="100%" height="100%" viewBox="0 0 256 256" version="1.1" xmlns="http://www.w3.org/2000/svg" xmlns:xlink="http://www.w3.org/1999/xlink" xml:space="preserve" xmlns:serif="http://www.serif.com/" style="fill-rule:evenodd;clip-rule:evenodd;stroke-linecap:square;stroke-linejoin:round;stroke-miterlimit:1.5;">
    <g transform="matrix(1,0,0,0.885896,0,0)">
        <path d="M256,43.346C256,19.423 238.794,0 217.6,0L38.4,0C17.206,0 0,19.423 0,43.346L0,245.627C0,269.55 17.206,288.973 38.4,288.973L217.6,288.973C238.794,288.973 256,269.55 256,245.627L256,43.346Z" style="fill:rgb(221,239,249);"/>
    </g>
    <g transform="matrix(1.08548,0,0,1.08548,13.9098,-5.67116)">
        <g transform="matrix(0.921254,0,0,0.921254,-12.8144,5.22458)">
            <path d="M63.972,172.439L78.944,119.982L97.727,119.982L77.855,188.038L49.544,188.038L30.307,119.982L48.727,119.982L63.427,172.439L63.972,172.439ZM119.418,134.855L119.418,148.207L147.189,148.207L147.189,163.08L119.418,163.08L119.418,188.038L101.278,188.038L101.278,119.982L149.549,119.982L149.549,134.855L119.418,134.855ZM174.779,135.762L175.868,188.038L157.728,188.038L157.728,119.982L188.397,119.982L207.916,172.257L208.642,172.257L207.553,119.982L225.693,119.982L225.693,188.038L194.752,188.038L175.505,135.762L174.779,135.762Z" style="fill:rgb(70,128,157);"/>
        </g>
        <g transform="matrix(0.803279,0,0,0.803279,2.05043,-14.812)">
            <g transform="matrix(1.14687,-0,-0,1.14687,-18.5052,24.9435)">
                <path d="M120.486,25.51L180.792,22.646L146.899,72.609L120.486,25.51Z" style="fill:url(#_Linear1);"/>
                <path d="M88.044,121.49C96.468,92.865 117.32,63.893 143.112,43.777" style="fill:none;stroke:url(#_Linear2);stroke-width:18px;"/>
            </g>
        </g>
        <g transform="matrix(0.803279,0,0,0.803279,20.9548,-8.56169)">
            <g transform="matrix(1.14687,-0,-0,1.14687,-42.0392,17.1625)">
                <path d="M183.799,90.469L209.723,97.393L188.629,113.978L183.799,90.469Z" style="fill:url(#_Linear3);"/>
                <path d="M94.019,118.479C105.193,84.866 158.282,101.525 190.916,101.257" style="fill:none;stroke:url(#_Linear4);stroke-width:8px;"/>
            </g>
        </g>
        <g transform="matrix(-0.426136,-0.68093,-0.68093,0.426136,196.8,86.5841)">
            <g transform="matrix(-0.608408,-0.972184,-0.972184,0.608408,224.29,167.472)">
                <path d="M74.45,28.776L94.019,15.803L92.656,39.242L74.45,28.776Z" style="fill:url(#_Linear5);"/>
                <path d="M85.726,110.479C96.476,76.251 73.437,59.75 85.646,30.368" style="fill:none;stroke:url(#_Linear6);stroke-width:7px;"/>
            </g>
        </g>
    </g>
    <path d="M33.732,204.207L36.477,204.207L32.018,218.026L28.02,218.026L23.598,204.207L26.306,204.207L29.991,215.816L30.047,215.816L33.732,204.207ZM42.966,214.949L45.286,214.949C45.286,217.989 43.537,218.136 40.772,218.136C37.068,218.136 36.313,216.958 36.313,213.216C36.313,209.752 36.866,208.242 40.772,208.242C44.752,208.242 45.286,209.402 45.286,213.621L38.633,213.621C38.633,215.705 38.688,216.369 40.772,216.369C42.063,216.369 42.966,216.388 42.966,214.949ZM38.633,212.149L42.966,212.149C42.966,210.157 42.671,210.009 40.772,210.009C38.762,210.009 38.633,210.434 38.633,212.149ZM53.304,214.341L55.624,214.341C55.624,217.51 54.483,218.136 51.221,218.136C47.664,218.136 46.891,217.105 46.891,213.199C46.891,209.807 47.425,208.242 51.221,208.242C54.096,208.242 55.624,208.684 55.624,211.742L53.304,211.742C53.304,210.267 52.843,210.009 51.221,210.009C49.229,210.009 49.211,210.71 49.211,213.199C49.211,215.613 49.174,216.369 51.221,216.369C53.12,216.369 53.304,216.037 53.304,214.341ZM56.161,210.12L56.161,208.353L57.377,208.353L57.377,206.16L59.697,206.16L59.697,208.353L63.401,208.353L63.401,210.12L59.697,210.12L59.697,215.079C59.715,215.964 59.715,216.369 60.693,216.369C62.002,216.369 61.855,215.337 61.855,214.323L63.898,214.323C63.935,217.253 63.199,218.136 60.693,218.136C58.15,218.136 57.377,217.547 57.377,215.097L57.377,210.12L56.161,210.12ZM69.391,208.242C73.426,208.242 73.942,209.439 73.942,213.199C73.942,216.94 73.426,218.136 69.391,218.136C65.356,218.136 64.84,216.94 64.84,213.199C64.84,209.439 65.356,208.242 69.391,208.242ZM69.391,210.009C67.326,210.009 67.16,210.599 67.16,213.217C67.16,215.798 67.326,216.369 69.391,216.369C71.456,216.369 71.622,215.798 71.622,213.217C71.622,210.599 71.456,210.009 69.391,210.009ZM75.731,208.353L77.996,208.353L77.941,209.623L78.033,209.623C78.494,208.555 79.49,208.242 80.615,208.242C82.659,208.242 83.156,209.457 83.156,211.281L83.156,212.055L80.983,212.055L80.983,211.557C80.983,210.581 80.891,210.009 79.803,210.009C78.42,210.009 78.014,210.802 78.051,212.055L78.051,218.026L75.731,218.026L75.731,208.353ZM93.641,206.471L93.641,210.141L99.796,210.141L99.796,212.313L93.641,212.313L93.641,218.026L90.99,218.026L90.99,204.207L100.128,204.207L100.128,206.471L93.641,206.471ZM103.98,208.353L103.98,218.026L101.66,218.026L101.66,208.353L103.98,208.353ZM103.98,204.207L103.98,206.176L101.66,206.176L101.66,204.207L103.98,204.207ZM112.422,214.949L114.742,214.949C114.742,217.989 112.993,218.136 110.228,218.136C106.524,218.136 105.769,216.958 105.769,213.216C105.769,209.752 106.322,208.242 110.228,208.242C114.208,208.242 114.742,209.402 114.742,213.621L108.089,213.621C108.089,215.705 108.144,216.369 110.228,216.369C111.519,216.369 112.422,216.388 112.422,214.949ZM108.089,212.149L112.422,212.149C112.422,210.157 112.127,210.009 110.228,210.009C108.218,210.009 108.089,210.434 108.089,212.149ZM118.98,204.207L118.98,218.026L116.66,218.026L116.66,204.207L118.98,204.207ZM127.607,218.026L127.699,216.572L127.625,216.572C127.035,217.842 125.966,218.136 124.601,218.136C121.009,218.136 120.899,215.872 120.899,212.904C120.899,210.065 121.286,208.242 124.601,208.242C125.781,208.242 127.017,208.463 127.515,209.641L127.607,209.641L127.607,204.207L129.927,204.207L129.927,218.026L127.607,218.026ZM125.284,210.009C123.68,210.009 123.219,210.47 123.219,212.904C123.219,215.097 123.163,216.369 125.284,216.369C127.662,216.369 127.57,215.208 127.57,212.904C127.57,210.839 127.293,210.009 125.284,210.009ZM149.149,215.761L148.928,204.207L151.58,204.207L151.58,218.026L147.177,218.026L141.297,206.471L141.205,206.471L141.426,218.026L138.774,218.026L138.774,204.207L143.159,204.207L149.076,215.761L149.149,215.761ZM160.17,218.026L160.262,216.811L160.206,216.811C159.745,218.099 158.326,218.136 157.201,218.136C155.008,218.136 153.591,217.676 153.591,215.06C153.591,212.738 154.806,212.094 157.201,212.094C158.381,212.094 159.543,212.112 160.096,213.198L160.17,213.198L160.17,211.946C160.17,210.378 160.04,209.825 158.104,209.825C157.09,209.825 156.279,209.917 156.279,211.172L153.959,211.172C153.959,208.353 155.892,208.242 158.104,208.242C161.2,208.242 162.489,208.721 162.489,211.965L162.489,218.026L160.17,218.026ZM158.031,213.676C156.851,213.676 155.91,213.676 155.91,215.06C155.91,216.424 156.463,216.554 158.031,216.554C159.266,216.554 160.17,216.443 160.17,215.06C160.17,213.713 159.174,213.676 158.031,213.676ZM172.809,208.353L169.99,218.026L166.49,218.026L163.56,208.353L165.937,208.353L168.203,216.443L168.258,216.443L170.377,208.353L172.809,208.353ZM176.034,208.353L176.034,218.026L173.714,218.026L173.714,208.353L176.034,208.353ZM176.034,204.207L176.034,206.176L173.714,206.176L173.714,204.207L176.034,204.207ZM184.605,218.487L184.605,216.645L184.55,216.645C183.942,217.915 182.706,218.136 181.526,218.136C178.21,218.136 177.824,216.314 177.824,213.475C177.824,210.507 177.934,208.242 181.526,208.242C182.891,208.242 183.96,208.537 184.55,209.807L184.624,209.807L184.532,208.353L186.851,208.353L186.851,218.007C186.851,221.491 185.747,222.319 182.208,222.319C179.849,222.319 178.082,221.914 178.229,219.022L180.401,219.022C180.401,220.35 180.899,220.553 182.208,220.553C184.181,220.553 184.605,220.147 184.605,218.487ZM182.208,210.009C180.604,210.009 180.143,210.47 180.143,212.904C180.143,215.097 180.143,216.369 182.208,216.369C184.532,216.369 184.532,215.208 184.532,212.904C184.532,210.839 184.218,210.009 182.208,210.009ZM195.367,218.026L195.459,216.811L195.404,216.811C194.943,218.099 193.524,218.136 192.399,218.136C190.206,218.136 188.789,217.676 188.789,215.06C188.789,212.738 190.004,212.094 192.399,212.094C193.579,212.094 194.74,212.112 195.294,213.198L195.367,213.198L195.367,211.946C195.367,210.378 195.238,209.825 193.302,209.825C192.288,209.825 191.477,209.917 191.477,211.172L189.157,211.172C189.157,208.353 191.09,208.242 193.302,208.242C196.398,208.242 197.687,208.721 197.687,211.965L197.687,218.026L195.367,218.026ZM193.229,213.676C192.049,213.676 191.108,213.676 191.108,215.06C191.108,216.424 191.661,216.554 193.229,216.554C194.464,216.554 195.367,216.443 195.367,215.06C195.367,213.713 194.372,213.676 193.229,213.676ZM198.813,210.12L198.813,208.353L200.03,208.353L200.03,206.16L202.349,206.16L202.349,208.353L206.054,208.353L206.054,210.12L202.349,210.12L202.349,215.079C202.368,215.964 202.368,216.369 203.346,216.369C204.655,216.369 204.508,215.337 204.508,214.323L206.551,214.323C206.588,217.253 205.852,218.136 203.346,218.136C200.803,218.136 200.03,217.547 200.03,215.097L200.03,210.12L198.813,210.12ZM210.016,208.353L210.016,218.026L207.696,218.026L207.696,208.353L210.016,208.353ZM210.016,204.207L210.016,206.176L207.696,206.176L207.696,204.207L210.016,204.207ZM216.393,208.242C220.428,208.242 220.943,209.439 220.943,213.199C220.943,216.94 220.428,218.136 216.393,218.136C212.358,218.136 211.842,216.94 211.842,213.199C211.842,209.439 212.358,208.242 216.393,208.242ZM216.393,210.009C214.328,210.009 214.162,210.599 214.162,213.217C214.162,215.798 214.328,216.369 216.393,216.369C218.458,216.369 218.624,215.798 218.624,213.217C218.624,210.599 218.458,210.009 216.393,210.009ZM222.899,208.353L225.219,208.353L225.219,209.807L225.293,209.807C225.809,208.39 226.97,208.242 228.335,208.242C230.877,208.242 231.65,209.292 231.65,211.649L231.65,218.026L229.331,218.026L229.331,211.889C229.331,210.488 229.017,210.009 227.524,210.009C225.495,210.009 225.219,210.968 225.219,212.7L225.219,218.026L222.899,218.026L222.899,208.353ZM87.871,236.026L87.871,224.778L92.85,224.778C95.865,224.778 96.854,225.497 96.854,228.647C96.854,231.826 95.79,232.381 92.85,232.381L90.029,232.381L90.029,236.026L87.871,236.026ZM90.029,230.538L92.85,230.538C94.396,230.508 94.696,230.222 94.696,228.647C94.696,227.056 94.471,226.606 92.85,226.621L90.029,226.621L90.029,230.538ZM103.321,236.026L103.396,235.037L103.351,235.037C102.976,236.086 101.82,236.116 100.905,236.116C99.12,236.116 97.966,235.741 97.966,233.612C97.966,231.722 98.955,231.198 100.905,231.198C101.865,231.198 102.811,231.213 103.261,232.096L103.321,232.096L103.321,231.078C103.321,229.801 103.216,229.351 101.64,229.351C100.815,229.351 100.154,229.426 100.154,230.447L98.266,230.447C98.266,228.153 99.839,228.063 101.64,228.063C104.16,228.063 105.209,228.452 105.209,231.093L105.209,236.026L103.321,236.026ZM101.58,232.486C100.62,232.486 99.854,232.486 99.854,233.612C99.854,234.723 100.304,234.828 101.58,234.828C102.586,234.828 103.321,234.738 103.321,233.612C103.321,232.516 102.511,232.486 101.58,232.486ZM106.126,229.591L106.126,228.153L107.116,228.153L107.116,226.368L109.004,226.368L109.004,228.153L112.02,228.153L112.02,229.591L109.004,229.591L109.004,233.627C109.019,234.348 109.019,234.678 109.815,234.678C110.881,234.678 110.761,233.837 110.761,233.012L112.424,233.012C112.454,235.397 111.855,236.116 109.815,236.116C107.745,236.116 107.116,235.636 107.116,233.642L107.116,229.591L106.126,229.591ZM115.349,224.778L115.349,229.336L115.409,229.336C115.829,228.182 116.775,228.063 117.886,228.063C119.955,228.063 120.584,228.917 120.584,230.836L120.584,236.026L118.696,236.026L118.696,231.031C118.696,229.891 118.441,229.501 117.225,229.501C115.574,229.501 115.349,230.281 115.349,231.691L115.349,236.026L113.461,236.026L113.461,224.778L115.349,224.778ZM129.419,224.778L129.419,226.381L127.531,226.381L127.531,224.778L129.419,224.778ZM129.419,228.153L129.419,236.026L127.531,236.026L127.531,228.153L129.419,228.153ZM126.57,224.778L126.57,226.216L126,226.216C124.709,226.171 124.709,226.696 124.709,227.672L124.709,228.153L126.63,228.153L126.63,229.591L124.709,229.591L124.709,236.026L122.821,236.026L122.821,229.591L121.711,229.591L121.711,228.153L122.821,228.153L122.821,227.462C122.821,225.572 123.271,224.778 125.34,224.778L126.57,224.778ZM131.191,228.153L133.079,228.153L133.079,229.336L133.139,229.336C133.559,228.182 134.505,228.063 135.616,228.063C137.685,228.063 138.314,228.917 138.314,230.836L138.314,236.026L136.426,236.026L136.426,231.031C136.426,229.891 136.171,229.501 134.955,229.501C133.304,229.501 133.079,230.281 133.079,231.691L133.079,236.026L131.191,236.026L131.191,228.153ZM145.306,236.026L145.381,234.842L145.321,234.842C144.841,235.876 143.97,236.116 142.86,236.116C139.936,236.116 139.846,234.272 139.846,231.857C139.846,229.546 140.161,228.063 142.86,228.063C143.82,228.063 144.826,228.242 145.231,229.201L145.306,229.201L145.306,224.778L147.194,224.778L147.194,236.026L145.306,236.026ZM143.415,229.501C142.109,229.501 141.734,229.876 141.734,231.857C141.734,233.642 141.689,234.678 143.415,234.678C145.351,234.678 145.276,233.732 145.276,231.857C145.276,230.176 145.051,229.501 143.415,229.501ZM150.839,228.153L150.839,236.026L148.951,236.026L148.951,228.153L150.839,228.153ZM150.839,224.778L150.839,226.381L148.951,226.381L148.951,224.778L150.839,224.778ZM152.596,228.153L154.484,228.153L154.484,229.336L154.544,229.336C154.964,228.182 155.91,228.063 157.021,228.063C159.09,228.063 159.719,228.917 159.719,230.836L159.719,236.026L157.831,236.026L157.831,231.031C157.831,229.891 157.576,229.501 156.36,229.501C154.709,229.501 154.484,230.281 154.484,231.691L154.484,236.026L152.596,236.026L152.596,228.153ZM166.786,236.401L166.786,234.902L166.741,234.902C166.246,235.936 165.24,236.116 164.28,236.116C161.581,236.116 161.266,234.633 161.266,232.322C161.266,229.906 161.356,228.063 164.28,228.063C165.39,228.063 166.261,228.302 166.741,229.336L166.801,229.336L166.726,228.153L168.614,228.153L168.614,236.011C168.614,238.847 167.715,239.521 164.835,239.521C162.915,239.521 161.476,239.191 161.596,236.836L163.364,236.836C163.364,237.917 163.769,238.083 164.835,238.083C166.441,238.083 166.786,237.752 166.786,236.401ZM164.835,229.501C163.529,229.501 163.154,229.876 163.154,231.857C163.154,233.642 163.154,234.678 164.835,234.678C166.726,234.678 166.726,233.732 166.726,231.857C166.726,230.176 166.471,229.501 164.835,229.501Z" style="fill:rgb(70,128,157);"/>
    <defs>
        <linearGradient id="_Linear1" x1="0" y1="0" x2="1" y2="0" gradientUnits="userSpaceOnUse" gradientTransform="matrix(92.7479,0,0,98.8435,88.0436,72.068)"><stop offset="0" style="stop-color:rgb(70,128,157);stop-opacity:1"/><stop offset="0.56" style="stop-color:rgb(64,178,48);stop-opacity:1"/><stop offset="1" style="stop-color:rgb(62,199,0);stop-opacity:1"/></linearGradient>
        <linearGradient id="_Linear2" x1="0" y1="0" x2="1" y2="0" gradientUnits="userSpaceOnUse" gradientTransform="matrix(92.7479,0,0,98.8435,88.0436,72.068)"><stop offset="0" style="stop-color:rgb(70,128,157);stop-opacity:1"/><stop offset="0.56" style="stop-color:rgb(64,178,48);stop-opacity:1"/><stop offset="1" style="stop-color:rgb(62,199,0);stop-opacity:1"/></linearGradient>
        <linearGradient id="_Linear3" x1="0" y1="0" x2="1" y2="0" gradientUnits="userSpaceOnUse" gradientTransform="matrix(115.704,0,0,21.1161,94.0191,107.921)"><stop offset="0" style="stop-color:rgb(70,128,157);stop-opacity:1"/><stop offset="0.56" style="stop-color:rgb(200,149,46);stop-opacity:1"/><stop offset="1" style="stop-color:rgb(255,158,0);stop-opacity:1"/></linearGradient>
        <linearGradient id="_Linear4" x1="0" y1="0" x2="1" y2="0" gradientUnits="userSpaceOnUse" gradientTransform="matrix(115.704,0,0,21.1161,94.0191,107.921)"><stop offset="0" style="stop-color:rgb(70,128,157);stop-opacity:1"/><stop offset="0.56" style="stop-color:rgb(200,149,46);stop-opacity:1"/><stop offset="1" style="stop-color:rgb(255,158,0);stop-opacity:1"/></linearGradient>
        <linearGradient id="_Linear5" x1="0" y1="0" x2="1" y2="0" gradientUnits="userSpaceOnUse" gradientTransform="matrix(-47.6765,-76.183,-40.1855,25.1487,105.819,97.9046)"><stop offset="0" style="stop-color:rgb(70,128,157);stop-opacity:1"/><stop offset="0.51" style="stop-color:rgb(208,115,88);stop-opacity:1"/><stop offset="1" style="stop-color:rgb(255,110,64);stop-opacity:1"/><stop offset="1" style="stop-color:rgb(35,255,0);stop-opacity:1"/></linearGradient>
        <linearGradient id="_Linear6" x1="0" y1="0" x2="1" y2="0" gradientUnits="userSpaceOnUse" gradientTransform="matrix(-47.6765,-76.183,-40.1855,25.1487,105.819,97.9046)"><stop offset="0" style="stop-color:rgb(70,128,157);stop-opacity:1"/><stop offset="0.51" style="stop-color:rgb(208,115,88);stop-opacity:1"/><stop offset="1" style="stop-color:rgb(255,110,64);stop-opacity:1"/><stop offset="1" style="stop-color:rgb(35,255,0);stop-opacity:1"/></linearGradient>
    </defs>
</svg>
